<svg xmlns="http://www.w3.org/2000/svg" width="140" height="140" viewBox="0 0 140 140" fill="none">
  <g fill="#8CB6D7" fill-opacity="0.25">
    <circle cx="10" cy="10" r="2"/>
    <circle cx="35" cy="10" r="2"/>
    <circle cx="60" cy="10" r="2"/>
    <circle cx="85" cy="10" r="2"/>
    <circle cx="110" cy="10" r="2"/>
    <circle cx="10" cy="35" r="2"/>
    <circle cx="35" cy="35" r="2"/>
    <circle cx="60" cy="35" r="2"/>
    <circle cx="85" cy="35" r="2"/>
    <circle cx="110" cy="35" r="2"/>
    <circle cx="10" cy="60" r="2"/>
    <circle cx="35" cy="60" r="2"/>
    <circle cx="60" cy="60" r="2"/>
    <circle cx="85" cy="60" r="2"/>
    <circle cx="110" cy="60" r="2"/>
    <circle cx="10" cy="85" r="2"/>
    <circle cx="35" cy="85" r="2"/>
    <circle cx="60" cy="85" r="2"/>
    <circle cx="85" cy="85" r="2"/>
    <circle cx="110" cy="85" r="2"/>
    <circle cx="10" cy="110" r="2"/>
    <circle cx="35" cy="110" r="2"/>
    <circle cx="60" cy="110" r="2"/>
    <circle cx="85" cy="110" r="2"/>
    <circle cx="110" cy="110" r="2"/>
  </g>
</svg>
